PathFileType	4	(X/Y/Z)	/Users/niels/Desktop/University/Third Semester/Perception and Action/Exam/Gymnastics Motion Tracking/Code for Gym Tracking/Analyzed Data/Webcam_Backflip/id3_1_baseline_Sports2D/id3_1_baseline_Sports2D_px_person00.trc
DataRate	CameraRate	NumFrames	NumMarkers	Units	OrigDataRate	OrigDataStartFrame	OrigNumFrames
29.80392156862745	29.80392156862745	10	22	m	29.80392156862745	76	153
Frame#	Time	Hip			RHip			RKnee			RAnkle			RBigToe			RSmallToe			RHeel			LHip			LKnee			LAnkle			LBigToe			LSmallToe			LHeel			Neck			Head			Nose			RShoulder			RElbow			RWrist			LShoulder			LElbow			LWrist		
		X1	Y1	Z1	X2	Y2	Z2	X3	Y3	Z3	X4	Y4	Z4	X5	Y5	Z5	X6	Y6	Z6	X7	Y7	Z7	X8	Y8	Z8	X9	Y9	Z9	X10	Y10	Z10	X11	Y11	Z11	X12	Y12	Z12	X13	Y13	Z13	X14	Y14	Z14	X15	Y15	Z15	X16	Y16	Z16	X17	Y17	Z17	X18	Y18	Z18	X19	Y19	Z19	X20	Y20	Z20	X21	Y21	Z21	X22	Y22	Z22
76	2.55	1.047116749120035	-0.5609789122303785	0.0	1.0377008274220028	-0.5566048498733109	0.0	1.083545545506865	-0.6645217641219564	0.0	1.0514632549454699	-0.78115160446653	0.0	1.0921523404392828	-0.8047017324954874	0.0	1.0771215769754268	-0.8072777628592163	0.0	1.0375746276757836	-0.7949232716543196	0.0	1.0652580823443716	-0.5655693846302707	0.0	1.1017276350515954	-0.660742710166961	0.0	1.0765794642956759	-0.771762304348387	0.0	1.1144970812865695	-0.798451971573731	0.0	1.1092562928108347	-0.7929894474697463	0.0	1.0697929396368095	-0.7857295054341225	0.0	1.1688022800567173	-0.47276598759903704	0.0	1.2511804783322877	-0.4733706217750664	0.0	1.2061763509027084	-0.49762193420933415	0.0	1.1367861363291387	-0.4708624497608052	0.0	1.059989427697845	-0.5084156486418845	0.0	1.0321930220003441	-0.576074060299004	0.0	1.1580542746413662	-0.4730044464900709	0.0	1.1079711184913847	-0.5304335121626417	0.0	1.0955955163503062	-0.5846670122139522	0.0
77	2.5835526315789474	1.0457423668195687	-0.5583381845106662	0.0	1.0370540696638821	-0.5540608336661346	0.0	1.0779930765096368	-0.6641039977359163	0.0	1.05017983976214	-0.7823208325709645	0.0	1.0926507916881105	-0.8047363437601	0.0	1.0771061408740736	-0.8077233294202709	0.0	1.0365749053341016	-0.7966503446913059	0.0	1.0628532294270525	-0.562464438100795	0.0	1.0950321863921624	-0.6609034069059186	0.0	1.075050701763309	-0.7721129072303065	0.0	1.1127474760511955	-0.798343814883785	0.0	1.1077486905700225	-0.7929599891909903	0.0	1.0676103553701823	-0.7864472493516669	0.0	1.165178567060714	-0.4641178456220251	0.0	1.2480669421911044	-0.4632289381299468	0.0	1.2035979116711872	-0.4884807320686163	0.0	1.1358378674335707	-0.4637327468832125	0.0	1.059425739645415	-0.5015554933447423	0.0	1.0339618694504362	-0.5700598576845093	0.0	1.1533488015848115	-0.4640200135616488	0.0	1.0997329929618607	-0.5186285518263282	0.0	1.0877044941836298	-0.5727508363450269	0.0
78	2.6171052631578946	1.0445689329696841	-0.5574211427140993	0.0	1.0363260541787565	-0.553271775908055	0.0	1.0727521386987837	-0.6650285162897605	0.0	1.048953720277392	-0.7843927164599634	0.0	1.0928625601488122	-0.8056556411992116	0.0	1.0768834650385324	-0.8089542735246569	0.0	1.035519094612769	-0.799112683671544	0.0	1.0607448837000042	-0.560836903165384	0.0	1.0889530208480047	-0.6622749186717881	0.0	1.0736458902292052	-0.773440260843362	0.0	1.111029774304108	-0.7990231678793944	0.0	1.1064073265323262	-0.7937679325758599	0.0	1.0654710424068794	-0.7881083509752322	0.0	1.1611724895274096	-0.45680328902252043	0.0	1.2440584099435108	-0.453420055439487	0.0	1.200433584720774	-0.4802509354935342	0.0	1.1340690521023955	-0.458067063303229	0.0	1.0587989556940876	-0.4973990279206894	0.0	1.0361746994142926	-0.5671537953119163	0.0	1.1485541526164138	-0.45688752040046765	0.0	1.092725371292493	-0.5098591935154464	0.0	1.0815169545150893	-0.5648036996985131	0.0
79	2.650657894736842	1.0436447337177646	-0.5580572223703367	0.0	1.035543265755534	-0.5540175218025832	0.0	1.0679535096714066	-0.667107431506167	0.0	1.0478521316739915	-0.7872758873149076	0.0	1.0928179834771228	-0.8073420656166942	0.0	1.0765351914365442	-0.8108857669261604	0.0	1.0345715831854723	-0.8022111151997661	0.0	1.0590141925186245	-0.5606385138844525	0.0	1.083845630856586	-0.6646012054242084	0.0	1.0724737907300492	-0.7758316963723819	0.0	1.109735477451259	-0.8004376992543284	0.0	1.105451002670151	-0.7954084802735303	0.0	1.0636065495426528	-0.7907444047295923	0.0	1.1568541801037076	-0.4507860553925055	0.0	1.2392641158979731	-0.4440283378385246	0.0	1.19675357959097	-0.47282310627695506	0.0	1.1313039519645383	-0.45376884562724856	0.0	1.0579951898759492	-0.4957308790319169	0.0	1.038969500797762	-0.5671140719703883	0.0	1.1437893842898448	-0.4515711908414424	0.0	1.0871309308562318	-0.5044434693070148	0.0	1.0770971407127448	-0.5606566868694911	0.0
80	2.6842105263157894	1.0429996029549704	-0.5599099250101163	0.0	1.0347965005516704	-0.5559400726777548	0.0	1.0637331158173038	-0.6700158533826808	0.0	1.0469315059931605	-0.7907707412738862	0.0	1.092558985004021	-0.8095421346722185	0.0	1.0760816602254475	-0.8133126799575914	0.0	1.0338605340805562	-0.8057291362496991	0.0	1.0576245050467727	-0.5616582550044747	0.0	1.0800105065471362	-0.6675273609712048	0.0	1.0715809114751182	-0.7791993930884854	0.0	1.1091904934681538	-0.8024431545497521	0.0	1.1050600575479788	-0.797766480133556	0.0	1.0621803990622427	-0.7942076890456221	0.0	1.1523473060846652	-0.44601173680507133	0.0	1.2337752219532407	-0.43515691138524226	0.0	1.1927237364516399	-0.46612209848092867	0.0	1.1276779347154882	-0.45073475838576527	0.0	1.057030175221706	-0.4962328385822118	0.0	1.0425207730116028	-0.5695220786826515	0.0	1.1390725847491618	-0.4479047756870347	0.0	1.0828450708196578	-0.5022902807304048	0.0	1.0742666958733882	-0.5598588023429749	0.0
81	2.717763157894737	1.0426095537408238	-0.5625450060760587	0.0	1.0342265483794226	-0.5585982542797189	0.0	1.0602365208545927	-0.6733648734953005	0.0	1.046246352228093	-0.794630139664726	0.0	1.0921281253366333	-0.8119032709068402	0.0	1.0755780950680336	-0.815942651398967	0.0	1.0334713307240042	-0.8094145314838284	0.0	1.0564463559342652	-0.5635490218862438	0.0	1.0776978463836602	-0.6705992215144329	0.0	1.0709486108236443	-0.7832099268330065	0.0	1.109576735445586	-0.8047469195346588	0.0	1.1053206256347914	-0.8005494910461428	0.0	1.061220744162543	-0.7981746402300022	0.0	1.1477919292068337	-0.4423840140337359	0.0	1.227624674832633	-0.42686225844393	0.0	1.1885616579181468	-0.4601070701366193	0.0	1.1236062219859746	-0.4488010626810583	0.0	1.0560569611438657	-0.49855704183089933	0.0	1.0469696303272582	-0.5737976257468496	0.0	1.1343428099808412	-0.44558469140812135	0.0	1.0795081988222708	-0.502915499687486	0.0	1.0726889961494355	-0.5618076871195065	0.0
82	2.751315789473684	1.0423685810318746	-0.5655330318391492	0.0	1.0338854046721817	-0.5615610889463689	0.0	1.0575627110857244	-0.6768254436935631	0.0	1.0458498173490074	-0.7986417157275644	0.0	1.0916419708664156	-0.8141010399247819	0.0	1.075284589556965	-0.8185543628603658	0.0	1.0334377184167989	-0.8130845929076023	0.0	1.0554237314951225	-0.5659309808917173	0.0	1.0770633374895155	-0.6732827180770649	0.0	1.0705567643254221	-0.7872610101878522	0.0	1.1107619008901413	-0.8068870642144209	0.0	1.1061076187457497	-0.8032641054817103	0.0	1.0606258545636449	-0.8021602982695598	0.0	1.1432658539663074	-0.4397800999415282	0.0	1.220818129710454	-0.4191631716340865	0.0	1.184455541711138	-0.45472823937152484	0.0	1.1195704590417754	-0.4477524634279038	0.0	1.0553304946776214	-0.5023050545824572	0.0	1.0523189067870267	-0.5792873778763701	0.0	1.1294952772342708	-0.44428148637292464	0.0	1.0765850290577612	-0.505579814949445	0.0	1.0719396294829473	-0.5658970468450172	0.0
83	2.7848684210526318	1.042163001653183	-0.5685107675519788	0.0	1.03370110003883	-0.5644951574226516	0.0	1.0556923445450297	-0.6802226915435732	0.0	1.0456860803981471	-0.8026724676931378	0.0	1.0913359495546429	-0.8159071993800739	0.0	1.075655806742771	-0.8210435549203119	0.0	1.0336710574011094	-0.816641798009294	0.0	1.0546633171799	-0.5684709148138182	0.0	1.0781085831888786	-0.6750495052025788	0.0	1.0703874855583808	-0.7905585695046012	0.0	1.112288407340733	-0.8082855580155424	0.0	1.1070960274671904	-0.8052811093962865	0.0	1.060249599946258	-0.8055068543179872	0.0	1.1387517764531045	-0.4380473989554344	0.0	1.2133859805502414	-0.4120722635073917	0.0	1.1804769757391351	-0.4499043118316554	0.0	1.115858847542448	-0.4473643434638375	0.0	1.0551074103654365	-0.5069896377304699	0.0	1.0583848416573747	-0.5853441071847946	0.0	1.1244263032054647	-0.4436994945908518	0.0	1.073483745006596	-0.5093459387084942	0.0	1.071428785544312	-0.5713843569723563	0.0
84	2.818421052631579	1.0419335489902803	-0.5711532443794036	0.0	1.0335985496417588	-0.5671667965492336	0.0	1.0544867481440827	-0.6835029591233049	0.0	1.0455134352197317	-0.8066998653983276	0.0	1.0914318311855724	-0.8172800818745152	0.0	1.0770032106579321	-0.8234137495453475	0.0	1.0339482064700762	-0.820055117948695	0.0	1.0543042531048443	-0.5708624285839846	0.0	1.0806609221132395	-0.6755178993071643	0.0	1.0703607889721602	-0.7923409459200133	0.0	1.1136501409676376	-0.8084615038186131	0.0	1.1079784835448996	-0.8060259662892534	0.0	1.0599844108604417	-0.8074877076056127	0.0	1.1341723275901605	-0.43694642569532116	0.0	1.205441405314734	-0.40558277358485656	0.0	1.1765651087257738	-0.4455224387175662	0.0	1.1124451278491096	-0.44739651616662746	0.0	1.0555540430855554	-0.5120496010419276	0.0	1.0648719971834	-0.5913218168186277	0.0	1.1190776181811681	-0.44350996171674595	0.0	1.0697928993435568	-0.513174380906618	0.0	1.070514225319838	-0.577139229093079	0.0
85	2.8519736842105265	1.0416546572694634	-0.5731252177766273	0.0	1.0335830681645248	-0.569362912346892	0.0	1.053741407083623	-0.6866315006392164	0.0	1.0450456962542798	-0.810807524760313	0.0	1.091920997843532	-0.8184343299189875	0.0	1.0791587472124895	-0.8258144917597634	0.0	1.0340070256444325	-0.8233713854792614	0.0	1.0543686867307858	-0.5727788491481814	0.0	1.084359868523121	-0.6745953056255962	0.0	1.0702714655192187	-0.792129879003213	0.0	1.1144437348682628	-0.8072597206039648	0.0	1.1085251207746505	-0.8052019098524721	0.0	1.0596724125693826	-0.8075707142419305	0.0	1.1294430934385713	-0.436116279450217	0.0	1.197203645932306	-0.3996359993562404	0.0	1.1725850082133578	-0.4414224872665136	0.0	1.1091189748523058	-0.4475667719416263	0.0	1.0567006606922336	-0.5169063237184859	0.0	1.0714896785700716	-0.5965692297311281	0.0	1.113399597251522	-0.4433022998326743	0.0	1.0652923608313691	-0.5161526447169247	0.0	1.0685995556766803	-0.5818475021507099	0.0
